<?xml version="1.0" encoding="utf-8"?>
<!-- Generator: Adobe Illustrator 23.0.3, SVG Export Plug-In . SVG Version: 6.00 Build 0)  -->
<svg version="1.1" id="Layer_1" xmlns="http://www.w3.org/2000/svg" xmlns:xlink="http://www.w3.org/1999/xlink" x="0px" y="0px"
	 viewBox="0 0 769.5 768" style="enable-background:new 0 0 769.5 768;" xml:space="preserve">
<style type="text/css">
	.st0{fill:#EC1F27;}
	.st1{fill:#EC2028;}
	.st2{fill:#EC1E26;}
</style>
<path class="st0" d="M390,0c0.1,2.7,0.2,5.3,0.2,8c0,85.6,0.1,171.2-0.1,256.9c0,11-0.7,22.1-1.6,33.1
	c-1.9,21.5-12.6,37.7-30.3,49.7c-50.1,34.1-100,68.3-150,102.4c-23.4,15.9-46.8,31.7-70.3,47.6c-1.8,1.2-3.6,2.2-6.5,4
	c0-11-0.2-20.8,0.2-30.6c0.1-1.7,2.7-3.7,4.6-5c63.2-43.1,126.4-86.1,189.6-129.1c15.9-10.8,29.9-23.3,33.3-43.4
	c1.9-11.3,3.1-22.8,3.1-34.2c0.3-79,0.2-158,0-236.9c0-5.2,1.6-7.9,6.1-10.3c7-3.7,13.6-8,20.4-12C389.1,0,389.5,0,390,0z"/>
<path class="st1" d="M380.4,768c0-3.7,0-6.2,0-8.6c0-87.4-0.1-174.7,0.1-262.1c0-10.1,0.7-20.3,1.9-30.4
	c2.3-19.1,11.7-33.9,27.6-44.8c35-24,69.9-48.1,104.9-72c39.4-26.9,79-53.6,118.5-80.3c1.2-0.8,2.5-1.7,4.7-3.1
	c0,10.9,0.2,21-0.2,31c-0.1,1.6-2.4,3.4-4.1,4.6c-51.1,34.8-102.3,69.5-153.5,104.3c-12.2,8.3-24.1,17.3-36.7,25
	c-24.6,15.2-34.9,37.7-35.2,65.7c-0.2,14.8-0.6,29.6-0.6,44.4c-0.1,68.1-0.1,136.3,0.1,204.4c0,4.9-1.4,7.6-5.8,9.7
	C395.3,759.2,388.5,763.4,380.4,768z"/>
<path class="st0" d="M131.3,447.8c0-10.2-0.3-19.2,0.2-28.2c0.2-2.4,2.7-5.3,4.9-6.8c38.4-26.3,77-52.5,115.6-78.7
	c13-8.8,25.7-18,38.7-26.8c18.3-12.5,27.2-30.2,28.8-51.9c0.7-9.5,1.2-19,1.2-28.5c0.1-60.4,0.1-120.7-0.1-181.1
	c0-4.8,1.2-7.6,5.7-9.8c6.9-3.3,13.4-7.2,21-11.4c0,3.3,0,5.4,0,7.5c0,69.9,0.2,139.8-0.2,209.6c-0.1,13.4-1.6,26.9-3.5,40.2
	c-2.1,14.9-9.9,27-22.1,35.7c-28.5,20.2-57.2,40-86,59.7c-33,22.6-66.2,44.9-99.3,67.3C135.1,445.6,133.7,446.3,131.3,447.8z"/>
<path class="st0" d="M423.3,743.2c0-3.6,0-5.8,0-8c0-71.2-0.1-142.4,0.1-213.6c0-11,1.1-22.1,2.7-33c2.6-18.3,12.7-32.1,27.8-42.5
	c34.2-23.5,68.4-47.1,102.7-70.5c25-17.1,50.1-34,75.1-50.9c1.8-1.2,3.6-2.3,6.4-4.1c0,10.4,0.3,19.8-0.2,29.1
	c-0.1,2-2.6,4.3-4.5,5.6c-45.8,31.3-91.6,62.5-137.4,93.7c-5.7,3.9-11.1,8-16.8,11.8c-17.9,12.3-26.5,29.7-28.1,50.9
	c-0.8,10.6-1.4,21.2-1.4,31.8c-0.1,59.7-0.1,119.4,0,179.1c0,4.3-1,6.8-5,8.8C437.9,734.8,431.3,738.8,423.3,743.2z"/>
<path class="st0" d="M131.3,396.4c0-11-0.3-20.6,0.2-30.2c0.1-2.1,3-4.5,5.2-6c35.9-24.6,71.2-50.1,108-73.4
	c27.9-17.7,39-42.4,38.9-74c-0.2-48.9,0.2-97.7,0-146.6c0-4.9,1.4-7.6,5.8-9.6c5.7-2.7,11.2-6,17.5-9.4c0.2,2.7,0.5,4.5,0.5,6.4
	c0,56,0.2,111.9-0.1,167.9c0,10.8-1.1,21.6-2.5,32.3c-2.3,17.8-11.4,31.9-26.2,42c-43.5,29.9-87.1,59.7-130.6,89.5
	C142.8,388.7,137.5,392.2,131.3,396.4z"/>
<path class="st0" d="M638.2,371.9c0,10.9,0.2,20.4-0.2,29.8c-0.1,2-2.3,4.5-4.2,5.8c-35.9,24.7-71.2,50.1-107.9,73.4
	c-27.1,17.2-38.9,40.9-38.8,72c0.1,49.3-0.2,98.6,0,148c0,5.5-1.7,8.4-6.4,10.6c-5.6,2.6-10.8,5.9-16.9,9.2
	c-0.2-2.1-0.5-3.7-0.5-5.3c0-57.7-0.1-115.5,0.1-173.2c0-9.9,1.2-19.9,2.7-29.7c2.8-18.4,13.2-31.9,28.2-42.3
	c29.9-20.5,59.7-41.1,89.6-61.5C601.5,396.7,619.2,384.8,638.2,371.9z"/>
<path class="st0" d="M266.4,69.5c0,52.2,0.5,103.9-0.2,155.5c-0.3,21.6-9.8,39.6-28.1,52.2c-34.8,23.8-69.6,47.7-104.4,71.5
	c-0.3,0.2-0.8,0.3-2.3,0.7c0-10.9-0.1-21.6,0.2-32.2c0-1.4,2.5-2.8,4-3.9c23.4-16.2,46.7-32.6,70.5-48.3
	c21.5-14.2,32.3-33.9,32.7-59.3c0.5-38.4,0.9-76.9,1.1-115.3c0-4.4,1-7.2,5.3-9.2C252.5,77.6,259.4,73.4,266.4,69.5z"/>
<path class="st2" d="M504,698.3c0-51.8-0.3-102.9,0.2-153.9c0.2-23,10.1-41.6,29.6-54.8c34.5-23.5,68.7-47.3,104.4-71.8
	c0,11.9,0.2,22.6-0.2,33.2c-0.1,1.5-2.6,3.3-4.3,4.4c-21.5,14.8-42.5,30.3-64.6,44c-27.2,16.7-38.2,40.8-38.2,71.6
	c0.1,35.4-0.2,70.8,0,106.1c0,4.9-1.4,7.5-5.7,9.7C517.8,690.3,510.9,694.5,504,698.3z"/>
<path class="st0" d="M132.7,524.1c9.8-6.5,18.6-12.4,27.5-18c1.3-0.8,3.8-0.7,5.4-0.1c63,22.9,125.9,45.8,188.8,68.9
	c1.5,0.6,3.5,2.4,3.6,3.8c0.3,8.8,0.2,17.6,0.2,27.7C283.2,578.9,208.5,551.7,132.7,524.1z"/>
<path class="st0" d="M409.9,162.7c75.7,26.1,150.6,52,226.7,78.3c-9.7,6.7-18.5,12.9-27.5,18.7c-1.3,0.8-3.9,0.4-5.6-0.2
	c-63.1-21.7-126.2-43.6-189.4-65.3c-3.4-1.2-4.5-2.6-4.4-6.1C410,180.1,409.9,171.9,409.9,162.7z"/>
<path class="st0" d="M359.2,560.3c-60.1-22-119.6-43.6-180.4-65.8c9.2-6.1,17.5-11.8,26-17.1c1.1-0.7,3.4-0.3,4.9,0.3
	c48.5,17.6,97,35.3,145.4,53.2c1.7,0.6,3.8,3.1,3.9,4.8C359.5,543.5,359.2,551.5,359.2,560.3z"/>
<path class="st0" d="M409.9,208.9c60.5,20.8,120.2,41.4,181.2,62.5c-9,6.2-17.2,12-25.6,17.4c-1.3,0.8-3.8,0.4-5.5-0.2
	c-48.4-16.5-96.7-33.2-145-49.7c-3.6-1.2-5.4-3-5.2-7C410.1,224.6,409.9,217.3,409.9,208.9z"/>
<path class="st1" d="M358.8,510.9c-44.3-16.2-87.7-32-132-48.2c8.7-5.8,16.4-11.3,24.5-16.2c1.5-0.9,4.3-0.4,6.2,0.3
	c32.1,11.6,64.2,23.4,96.4,35.1c3.6,1.3,5.3,2.9,5.1,7C358.6,495.9,358.8,502.9,358.8,510.9z"/>
<path class="st0" d="M543.8,304c-8.5,5.9-15.9,11.2-23.5,16c-1.7,1-4.6,1.1-6.6,0.4c-32.8-11.1-65.5-22.4-98.1-33.8
	c-1.7-0.6-3.9-3-4-4.7c-0.4-7.5-0.2-15-0.2-23.6C455.3,273.4,498.8,288.5,543.8,304z"/>
<path class="st0" d="M412.7,304c28.8,10,57.4,19.9,87.2,30.2c-9.2,6.3-17.2,12-25.4,17.3c-1.4,0.9-4.2,0.4-6.1-0.2
	c-17.1-5.8-34.1-11.8-51.3-17.6c-3.3-1.1-4.6-2.5-4.5-6C412.9,320,412.7,312.3,412.7,304z"/>
<path class="st0" d="M358.1,465.1c-29-10.6-57.4-20.9-87-31.8c9.3-6.2,17.7-11.9,26.3-17.3c1.1-0.7,3.4,0,4.9,0.6
	c17.2,6.2,34.4,12.4,51.5,18.9c1.7,0.7,4,3,4,4.6C358.3,448,358.1,455.9,358.1,465.1z"/>
</svg>
